<svg width="25" height="25" viewBox="0 0 25 25" fill="none" xmlns="http://www.w3.org/2000/svg">
<g id="seo 1" clip-path="url(#clip0_11_10)">
<g id="Group">
<g id="Group_2">
<path id="Vector" d="M22.5 3.75H11.25V4.58333H22.5V3.75Z" fill="black"/>
</g>
</g>
<g id="Group_3">
<g id="Group_4">
<path id="Vector_2" d="M18.3333 5.41663H11.25V6.24996H18.3333V5.41663Z" fill="black"/>
</g>
</g>
<g id="Group_5">
<g id="Group_6">
<path id="Vector_3" d="M18.3333 7.08337H11.25V7.91671H18.3333V7.08337Z" fill="black"/>
</g>
</g>
<g id="Group_7">
<g id="Group_8">
<path id="Vector_4" d="M22.5 2.08337H14.5834V2.91671H22.5V2.08337Z" fill="black"/>
</g>
</g>
<g id="Group_9">
<g id="Group_10">
<path id="Vector_5" d="M13.75 2.08337H12.9166V2.91671H13.75V2.08337Z" fill="black"/>
</g>
</g>
<g id="Group_11">
<g id="Group_12">
<path id="Vector_6" d="M12.9167 16.6666H12.0834V17.5H12.9167V16.6666Z" fill="black"/>
</g>
</g>
<g id="Group_13">
<g id="Group_14">
<path id="Vector_7" d="M6.96124 2.79461L6.37207 2.20544L5.53874 3.03878C5.37608 3.20149 5.37608 3.46524 5.53874 3.62794L6.37207 4.46128L6.96124 3.87211L6.42249 3.33336L6.96124 2.79461Z" fill="black"/>
</g>
</g>
<g id="Group_15">
<g id="Group_16">
<path id="Vector_8" d="M10.2946 3.03878L9.46124 2.20544L8.87207 2.79461L9.41082 3.33336L8.87207 3.87211L9.46124 4.46128L10.2946 3.62794C10.4572 3.46524 10.4572 3.20149 10.2946 3.03878Z" fill="black"/>
</g>
</g>
<g id="Group_17">
<g id="Group_18">
<path id="Vector_9" d="M7.93836 1.95109L7.10425 4.45105L7.89435 4.71467L8.72846 2.21471L7.93836 1.95109Z" fill="black"/>
</g>
</g>
<g id="Group_19">
<g id="Group_20">
<path id="Vector_10" d="M21.6667 12.9167V9.58333H20.8334V12.9167H20V8.75H19.1667V12.9167H18.3334V10.8333H17.5V12.9167H16.6667V10.4167H15.8334V12.9167H15V11.25H14.1667V12.9167H13.3334V13.75H22.5V12.9167H21.6667Z" fill="black"/>
</g>
</g>
<g id="Group_21">
<g id="Group_22">
<path id="Vector_11" d="M22.0833 0H2.91663C1.53647 0.00135417 0.41798 1.11984 0.416626 2.5V10.6775V10.6812V15.4167V16.6667C0.41798 18.0468 1.53647 19.1653 2.91663 19.1667H8.07579L6.40913 22.5H4.16663C3.47626 22.5 2.91663 23.0596 2.91663 23.75C2.91663 24.4404 3.47626 25 4.16663 25H20.8333C21.5237 25 22.0833 24.4404 22.0833 23.75C22.0833 23.0596 21.5237 22.5 20.8333 22.5H18.5908L16.9241 19.1667H22.0833C23.4634 19.1653 24.5819 18.0468 24.5833 16.6667V2.5C24.5819 1.11984 23.4634 0.00135417 22.0833 0ZM1.24996 5.8625L2.19704 6.99C2.27621 7.08432 2.39308 7.13875 2.51621 7.13875H3.79163C3.91475 7.13875 4.03163 7.08432 4.11079 6.99L5.05829 5.8625L5.99329 6.16625L6.09663 7.63417C6.10517 7.75693 6.16756 7.86964 6.26704 7.94208L7.29913 8.69208C7.39897 8.76417 7.52543 8.7887 7.64496 8.75917L9.07538 8.40375L9.65371 9.19917L8.87413 10.4492C8.80954 10.554 8.79459 10.6819 8.83329 10.7987L9.22788 12.0117C9.26584 12.1286 9.3535 12.2229 9.46746 12.2692L10.8333 12.8229V13.8062L9.46663 14.36C9.35241 14.406 9.2646 14.5006 9.22704 14.6179L9.10204 15H6.70163C7.63538 13.045 6.80746 10.7032 4.85246 9.76943C3.70418 9.22099 2.36116 9.26359 1.24996 9.88375V5.8625ZM1.24996 10.875C2.59767 9.82359 4.54256 10.0638 5.59392 11.4116C6.40569 12.4521 6.46834 13.8929 5.74996 15H1.24996V10.875ZM20.8333 23.3333C21.0634 23.3333 21.25 23.5199 21.25 23.75C21.25 23.9801 21.0634 24.1667 20.8333 24.1667H4.16663C3.93652 24.1667 3.74996 23.9801 3.74996 23.75C3.74996 23.5199 3.93652 23.3333 4.16663 23.3333H20.8333ZM17.6591 22.5H7.34079L9.00746 19.1667H15.9925L17.6591 22.5ZM23.75 16.6667C23.75 17.5871 23.0038 18.3333 22.0833 18.3333H2.91663C1.99616 18.3333 1.24996 17.5871 1.24996 16.6667V15.8333H5.96746H5.97121H23.75V16.6667ZM23.75 15H10.1062L11.4066 14.4729C11.5637 14.4092 11.6665 14.2566 11.6666 14.0871V12.5417C11.6667 12.372 11.5639 12.2192 11.4066 12.1554L9.95829 11.5696L9.68413 10.7258L10.51 9.40083C10.5995 9.25688 10.5929 9.07302 10.4933 8.93583L9.58496 7.68583C9.48522 7.54849 9.3122 7.48536 9.14746 7.52625L7.63246 7.90125L6.91663 7.38125L6.80704 5.82708C6.79512 5.65766 6.68152 5.5124 6.51996 5.46L5.05121 4.9825C4.88959 4.93104 4.71293 4.98182 4.60329 5.11125L3.60038 6.305H2.71163L1.70829 5.11125C1.59861 4.98167 1.42168 4.93083 1.25996 4.9825L1.24996 4.98625V2.5C1.24996 1.57953 1.99616 0.833333 2.91663 0.833333H22.0833C23.0038 0.833333 23.75 1.57953 23.75 2.5V15Z" fill="black"/>
</g>
</g>
</g>
<defs>
<clipPath id="clip0_11_10">
<rect width="25" height="25" fill="white"/>
</clipPath>
</defs>
</svg>
